<svg width="400" height="400" viewBox="0 0 400 400" xmlns="http://www.w3.org/2000/svg">
  <path d="M188.4 18.2c7.9-24.3 15.3-24.3 23.2 0l5.7 17.6c4 12.4 16.9 19.3 29.4 15.2l17.6-5.7c24.3-7.9 32.2-.1 24.3 23.2l-5.7 17.6c-4 12.4 2.8 25.4 15.2 29.4l17.6 5.7c24.3 7.9 24.3 15.3 0 23.2l-17.6 5.7c-12.4 4-19.3 16.9-15.2 29.4l5.7 17.6c7.9 24.3.1 32.2-23.2 24.3l-17.6-5.7c-12.4-4-25.4 2.8-29.4 15.2l-5.7 17.6c-7.9 24.3-15.3 24.3-23.2 0l-5.7-17.6c-4-12.4-16.9-19.3-29.4-15.2l-17.6 5.7c-24.3 7.9-32.2.1-24.3-24.3l5.7-17.6c4-12.4-2.8-25.4-15.2-29.4l-17.6-5.7c-24.3-7.9-24.3-15.3 0-23.2l17.6-5.7c12.4-4 19.3-16.9 15.2-29.4l-5.7-17.6c-7.9-24.3-.1-32.2 24.3-24.3l17.6 5.7c12.4 4 25.4-2.8 29.4-15.2z" fill="white"/>
</svg>
